<svg id="Layer_1" data-name="Layer 1" xmlns="http://www.w3.org/2000/svg" viewBox="0 0 258.42 260.8"><defs><style>.cls-1{fill:#fff;}.cls-1,.cls-2{stroke:#231f20;stroke-linecap:round;stroke-linejoin:round;stroke-width:3px;}.cls-2{fill:none;}</style></defs><path class="cls-1" d="M211.29,279.07H124a9.2,9.2,0,0,1-9.2-9.19V138.47a119.13,119.13,0,0,1,53.39-99.34l.38-.24a.9.9,0,0,1,1,0h0a119.09,119.09,0,0,1,50.9,97.64V269.88A9.19,9.19,0,0,1,211.29,279.07Z" transform="translate(-38.09 -37.23)"/><line class="cls-2" x1="77.89" y1="206.09" x2="182.58" y2="205.6"/><path class="cls-2" d="M117.65,120.94A142.67,142.67,0,0,0,158,129.63a144.46,144.46,0,0,0,60.84-9.2" transform="translate(-38.09 -37.23)"/><circle class="cls-1" cx="129.43" cy="96.95" r="31.87"/><path class="cls-1" d="M288.5,280.92l-68.41-24.33V181.67l71.85,64a9.18,9.18,0,0,1,3.07,6.85v23.81A4.88,4.88,0,0,1,288.5,280.92Z" transform="translate(-38.09 -37.23)"/><path class="cls-1" d="M46.43,280.92l68.41-24.33V181.67L43,245.67a9.18,9.18,0,0,0-3.07,6.85v23.81A4.88,4.88,0,0,0,46.43,280.92Z" transform="translate(-38.09 -37.23)"/><rect class="cls-1" x="94.65" y="241.91" width="74.19" height="17.39" rx="2.89"/><path class="cls-1" d="M177.21,267.38H162.39a3.6,3.6,0,0,1-3.6-3.8L163,186.4a3.6,3.6,0,0,1,3.59-3.41h7.23a3.6,3.6,0,0,1,3.6,3.45l3.39,77.18A3.6,3.6,0,0,1,177.21,267.38Z" transform="translate(-38.09 -37.23)"/><path class="cls-2" d="M147.06,45.67a122.05,122.05,0,0,0-24.28,28.39c-18.5,30-18.86,60.26-18.13,73.87" transform="translate(-38.09 -37.23)"/><path class="cls-2" d="M224,92.48a246.39,246.39,0,0,1,4.79,26.68,246.6,246.6,0,0,1,.34,56.77" transform="translate(-38.09 -37.23)"/><path class="cls-2" d="M245,191.81l37,33.45" transform="translate(-38.09 -37.23)"/><path class="cls-2" d="M234.45,270.5l41,14.34" transform="translate(-38.09 -37.23)"/><path class="cls-2" d="M45.83,228.89c21.18-18.74,33.49-28.6,54.66-47.34" transform="translate(-38.09 -37.23)"/><path class="cls-2" d="M203,91.83A178.62,178.62,0,0,1,210.33,125c.08.62.82,6.81,1.16,13.88,1.3,27.8-1.7,116-1.93,122.56" transform="translate(-38.09 -37.23)"/><circle class="cls-1" cx="129.56" cy="97.63" r="21.87"/><circle class="cls-2" cx="183.21" cy="48.25" r="0.55"/><circle class="cls-2" cx="248.82" cy="191.74" r="0.55"/><circle class="cls-2" cx="2.05" cy="196.28" r="0.55"/></svg>